In order to avoid a ghostly figure in the road, high school senior Brent Mitchell wraps his car around a tree, killing his father. Constantly confronted by his mother's emotional collapse after the accident, Brent escapes into a marijuana fueled world of loud metal music to block the pain and guilt. Dejected and out of sorts, he has a shot at happiness with his girlfriend Holly, a grounded, caring girl with drop dead good looks, a dream date for the high school prom. But his plans are thwarted by a disturbing series of events that take place under a mirrored disco ball, involving pink satin, glitter, syringes, nails, power drills and a secret admirer. Brent has become the prom king at a macabre, sadistic event where he is the entertainment

Genre:Horror
Language:English  http://www.imdb.com/title/tt1316536/
Source:720p.BluRay.x264-AVCHD

General
Complete name :The.Loved.Ones.2009.BRRip.H264.Feel-Free
Format : MPEG-4
Format profile : Base Media
Codec ID : isom
File size : 1.11 GiB
Duration : 1h 24mn
Overall bit rate : 1 884 Kbps
Video #1
Codec ID : avc1
Codec ID/Info : Advanced Video Coding
Duration : 1h 24mn
Bit rate mode : Variable
Bit rate : 1 560 Kbps
Width : 720 pixels
Height : 304 pixels
Display aspect ratio : 2.35:1
Frame rate mode : Constant
Frame rate : 24.390 fps
Resolution : 24 bits
Colorimetry : 4:2:0
Scan type : Progressive
Bits/(Pixel*Frame) : 0.292
Stream size : 938 MiB (83%)
Audio #2
ID : 2
Format : AAC
Format/Info : Advanced Audio Codec
Format version : Version 4
Format profile : LC
Format settings, SBR : No
Codec ID : 40
Duration : 1h 24mn
Bit rate mode : Variable
Bit rate : 320 Kbps
Channel(s) : 6 channels
Channel positions : Front: L C R, Rear: L R, LFE
Sampling rate : 48.0 KHz
Resolution : 16 bits
Stream size : 192 MiB (17%)